<?xml version="1.0" standalone="no"?>
<!DOCTYPE svg PUBLIC "-//W3C//DTD SVG 20010904//EN"
 "http://www.w3.org/TR/2001/REC-SVG-20010904/DTD/svg10.dtd">
<svg version="1.0" xmlns="http://www.w3.org/2000/svg"
 width="800.000000pt" height="800.000000pt" viewBox="0 0 800.000000 800.000000"
 preserveAspectRatio="xMidYMid meet">
<metadata>
Created by potrace 1.11, written by Peter Selinger 2001-2013
</metadata>
<g transform="translate(0.000000,800.000000) scale(0.100000,-0.100000)"
fill="#000000" stroke="none">
<path d="M1393 6628 c-32 -11 -65 -26 -74 -34 -8 -8 -19 -14 -24 -14 -5 0
-272 -263 -594 -584 -322 -322 -600 -597 -618 -613 -100 -88 -107 -272 -14
-377 75 -85 210 -114 315 -67 55 24 79 45 301 262 169 165 195 187 237 197
148 37 280 -24 334 -155 l23 -58 2 -1725 c2 -1801 2 -1791 14 -1855 29 -150
175 -258 336 -250 139 8 -20 -142 2164 2038 1130 1128 1992 1980 2013 1991 54
28 149 33 211 10 64 -23 125 -79 154 -141 26 -56 25 4 30 -2293 2 -729 6
-1338 10 -1355 22 -84 91 -175 162 -212 96 -51 203 -52 302 -3 61 30 118 85
650 617 321 321 583 586 583 589 0 3 13 22 30 42 84 106 75 269 -22 362 -53
50 -104 72 -180 75 -112 6 -131 -6 -356 -234 -133 -135 -210 -205 -237 -217
-25 -10 -68 -17 -115 -18 -61 -1 -84 3 -123 24 -57 29 -102 76 -131 139 l-21
46 -2 1720 c-1 1211 -5 1745 -13 1804 -13 97 -43 164 -97 215 -104 98 -241
119 -370 56 -64 -31 -188 -154 -2033 -1996 -1081 -1080 -1976 -1971 -1990
-1982 -61 -46 -187 -54 -265 -17 -22 11 -59 39 -82 62 -79 82 -73 -68 -74
1857 0 968 -4 1753 -9 1798 -5 46 -20 102 -33 131 -68 146 -238 217 -394 165z"/>
<path d="M5215 3436 c-109 -22 -200 -82 -258 -169 -49 -73 -68 -139 -69 -229
0 -67 4 -85 35 -150 40 -82 81 -129 153 -176 55 -34 147 -62 209 -62 138 1
282 92 347 221 37 75 46 114 42 197 -5 121 -68 232 -168 299 -71 47 -104 62
-154 68 -21 3 -46 7 -57 9 -11 2 -47 -2 -80 -8z"/>
</g>
</svg>
